<svg xmlns="http://www.w3.org/2000/svg" viewBox="0 0 668.885 138.729"><defs><style>.a { fill: #1d1d1b; }</style></defs><path d="M106.908 133.046v3.328q-6.82-.487-17.858-.487-14.207 0-21.268.487v-3.328q6.332-.244 9.05-1.542a4.686 4.686 0 0 0 2.72-4.627 23.02 23.02 0 0 0-1.948-7.793L67.374 91.81h-40.1l-6.818 17.614q-3.33 8.443-3.328 13.637 0 5.28 3.53 7.55t10.92 2.44v3.33q-9.5-.48-19.16-.48-7.468 0-12.418.49v-3.33q8.28-1.86 13.07-14.44L52.2 17.86h2.68l40.5 104.554q4.06 10.31 11.528 10.634zm-59.34-94.163l-19.076 49.6h37.666zm90.714 89.293a7.12 7.12 0 0 0 3.978 3.653 21.087 21.087 0 0 0 7.428 1.05v3.49q-15.263-.65-20.132-.65t-20.13.65v-3.49a21.1 21.1 0 0 0 7.427-1.06 7.13 7.13 0 0 0 3.978-3.66 16.9 16.9 0 0 0 1.26-7.23V25.97q0-7.71-2.8-11.162t-9.86-3.45V7.87q5.2.487 10.31.487 10.72 0 17.29-2.35v114.94a16.873 16.873 0 0 0 1.26 7.225zm48.705 0a7.12 7.12 0 0 0 3.978 3.653 21.09 21.09 0 0 0 7.428 1.05v3.49q-15.262-.65-20.13-.65t-20.133.65v-3.49a21.1 21.1 0 0 0 7.428-1.06 7.13 7.13 0 0 0 3.978-3.66 16.9 16.9 0 0 0 1.258-7.23V68.91q0-7.71-2.8-11.2t-9.863-3.49v-3.49q5.2.488 10.31.488 10.56 0 17.29-2.27v72a16.88 16.88 0 0 0 1.26 7.225zM182.4 10.634a11.193 11.193 0 0 1 3.9 3.9 10.074 10.074 0 0 1 1.46 5.276 10.28 10.28 0 0 1-1.46 5.317 10.747 10.747 0 0 1-3.9 3.9 10.29 10.29 0 0 1-5.276 1.42 10.5 10.5 0 0 1-5.317-1.42 10.338 10.338 0 0 1-3.9-3.9 10.5 10.5 0 0 1-1.42-5.317 10.29 10.29 0 0 1 1.42-5.276 10.747 10.747 0 0 1 3.9-3.9 10.282 10.282 0 0 1 5.317-1.46 10.074 10.074 0 0 1 5.276 1.46zm153.382 117.542a7.123 7.123 0 0 0 3.978 3.653 21.087 21.087 0 0 0 7.428 1.05v3.49q-15.262-.65-19.97-.65-4.626 0-18.59.65v-3.49a15.92 15.92 0 0 0 6.455-1.06 6.66 6.66 0 0 0 3.41-3.66 19.113 19.113 0 0 0 1.1-7.23V72.9a58.307 58.307 0 0 0-.73-10.27 11.056 11.056 0 0 0-3.492-6.412q-2.76-2.476-8.44-2.476a18.184 18.184 0 0 0-11.44 3.978 26.546 26.546 0 0 0-8.03 10.878 38.75 38.75 0 0 0-2.92 15.26v37.1a16.873 16.873 0 0 0 1.26 7.226 7.132 7.132 0 0 0 3.94 3.653 20.738 20.738 0 0 0 7.39 1.055v3.49q-15.26-.648-19.88-.648-4.71 0-18.67.65v-3.492a16.223 16.223 0 0 0 6.494-1.055 6.48 6.48 0 0 0 3.41-3.653 19.8 19.8 0 0 0 1.056-7.225V72.9a58.355 58.355 0 0 0-.73-10.27 11.055 11.055 0 0 0-3.49-6.412q-2.76-2.476-8.36-2.476a18.174 18.174 0 0 0-11.53 4.018 26.816 26.816 0 0 0-8.04 10.96 39.047 39.047 0 0 0-2.92 15.3v36.934a19.112 19.112 0 0 0 1.1 7.225 6.63 6.63 0 0 0 3.45 3.65 16.22 16.22 0 0 0 6.49 1.05v3.49q-13.964-.65-18.67-.65t-19.97.65v-3.49a21.1 21.1 0 0 0 7.43-1.06 7.13 7.13 0 0 0 3.976-3.66 16.9 16.9 0 0 0 1.26-7.23V68.91q0-7.71-2.8-11.2t-9.86-3.49v-3.49q5.193.487 10.31.487 10.55 0 17.29-2.27V68.51q4.057-10.228 11.364-15.14a27.95 27.95 0 0 1 15.91-4.91q11.28 0 17.29 6.25 4.14 4.548 5.115 13.394 4.14-10.47 11.442-15.06a29.923 29.923 0 0 1 16.236-4.587q11.28 0 17.29 6.25a18.882 18.882 0 0 1 4.22 8.484 59.87 59.87 0 0 1 1.22 13.36v44.4a16.874 16.874 0 0 0 1.245 7.23zm84.666-.853a32.643 32.643 0 0 1-10.634 8.24 31.585 31.585 0 0 1-14.246 3.166q-11.854 0-20.5-5.4a34.606 34.606 0 0 1-13.19-15.18 52.887 52.887 0 0 1-4.547-22.53q0-14.45 4.63-25.09a36.85 36.85 0 0 1 13.11-16.36 34.634 34.634 0 0 1 19.85-5.73q14.94 0 23.02 9.05t8.08 27.472h-51.95a83.26 83.26 0 0 0-.57 10.634 47.17 47.17 0 0 0 3.61 19.16 30.794 30.794 0 0 0 9.46 12.582 20.242 20.242 0 0 0 12.34 4.38q16.72 0 24.44-16.64l3.33 1.3a33.258 33.258 0 0 1-6.21 10.913zm-11.81-60.678a25.086 25.086 0 0 0-5.36-10.96 11.645 11.645 0 0 0-9.01-4.058 15.172 15.172 0 0 0-9.416 3.288q-4.3 3.288-7.265 10.066a52.832 52.832 0 0 0-3.774 16.85h36.2a54.368 54.368 0 0 0-1.376-15.18zm69.12-13.435a30.452 30.452 0 0 1 16.762-4.75q11.607 0 17.615 6.25a20.018 20.018 0 0 1 4.424 8.4 53.782 53.782 0 0 1 1.34 13.436v44.4a16.89 16.89 0 0 0 1.25 7.225 7.123 7.123 0 0 0 3.98 3.66 21.09 21.09 0 0 0 7.43 1.06v3.49q-15.26-.65-19.97-.65-4.63 0-18.59.65v-3.49a15.912 15.912 0 0 0 6.45-1.05 6.66 6.66 0 0 0 3.41-3.65 19.113 19.113 0 0 0 1.1-7.22V72.9a45.833 45.833 0 0 0-.94-10.066 11.847 11.847 0 0 0-3.9-6.575q-2.96-2.52-8.65-2.52a19.733 19.733 0 0 0-12.14 3.98 25.746 25.746 0 0 0-8.24 10.91 39.26 39.26 0 0 0-2.92 15.38v36.93a19.113 19.113 0 0 0 1.1 7.22 6.63 6.63 0 0 0 3.45 3.65 16.22 16.22 0 0 0 6.495 1.05v3.49q-13.96-.65-18.67-.65t-19.97.65v-3.496a21.1 21.1 0 0 0 7.43-1.053 7.13 7.13 0 0 0 3.98-3.656 16.89 16.89 0 0 0 1.26-7.224V68.91q0-7.71-2.8-11.2t-9.863-3.49v-3.49q5.194.487 10.31.487 10.55 0 17.29-2.27V68.51q4.135-10.552 11.562-15.302zm111.575-2.31v3.328h-24.6V118.6q0 7.55 2.68 10.837t7.954 3.288a11.384 11.384 0 0 0 8.85-4.14q3.65-4.14 6.168-13.637l3.247.812q-4.06 22.973-21.593 22.973a27.212 27.212 0 0 1-9.26-1.34 17.718 17.718 0 0 1-6.5-4.18 20.232 20.232 0 0 1-5.03-8.97 56.074 56.074 0 0 1-1.47-14.328v-55.69H533.8V50.9h15.99V25.49q9.334-.244 14.937-2.355V50.9h24.6zm73.342 76.423a32.643 32.643 0 0 1-10.634 8.24 31.585 31.585 0 0 1-14.24 3.166q-11.85 0-20.5-5.4a34.606 34.606 0 0 1-13.19-15.18 52.887 52.887 0 0 1-4.54-22.53q0-14.45 4.63-25.09a36.85 36.85 0 0 1 13.11-16.35 34.634 34.634 0 0 1 19.85-5.73q14.94 0 23.01 9.05t8.08 27.48h-51.96a83.26 83.26 0 0 0-.56 10.63 47.17 47.17 0 0 0 3.61 19.152 30.794 30.794 0 0 0 9.46 12.583 20.242 20.242 0 0 0 12.34 4.385q16.72 0 24.43-16.64l3.32 1.3a33.258 33.258 0 0 1-6.21 10.913zm-11.81-60.678a25.086 25.086 0 0 0-5.358-10.96 11.645 11.645 0 0 0-9.01-4.058 15.172 15.172 0 0 0-9.417 3.288q-4.3 3.288-7.265 10.066a52.832 52.832 0 0 0-3.774 16.85h36.2a54.368 54.368 0 0 0-1.37-15.18zm-18.1-41.48q2.515-4.546 6.088-11.447a72.853 72.853 0 0 1 5.926-9.984Q647.61 0 651.1 0a5.943 5.943 0 0 1 3.653 1.217 5.77 5.77 0 0 1 2.272 4.627 9.59 9.59 0 0 1-2.273 5.683 57.833 57.833 0 0 1-7.223 7.265q-4.79 4.18-9.18 8.158t-9.9 9.822l-1.79-1.46q3.57-5.602 6.08-10.148z" class="a"/></svg>